<svg xmlns="http://www.w3.org/2000/svg" xmlns:xlink="http://www.w3.org/1999/xlink" width="1920" zoomAndPan="magnify" viewBox="0 0 1440 809.999993" height="1080" preserveAspectRatio="xMidYMid meet" version="1.0"><defs><clipPath id="b30d55b4ef"><path d="M 1048.078125 516.515625 L 1440 516.515625 L 1440 810 L 1048.078125 810 Z M 1048.078125 516.515625 " clip-rule="nonzero"/></clipPath><clipPath id="7b670cdba0"><path d="M 1359 516.515625 C 1187.285156 516.515625 1048.078125 655.722656 1048.078125 827.4375 C 1048.078125 999.152344 1187.285156 1138.355469 1359 1138.355469 C 1530.714844 1138.355469 1669.921875 999.152344 1669.921875 827.4375 C 1669.921875 655.722656 1530.714844 516.515625 1359 516.515625 Z M 1359 516.515625 " clip-rule="nonzero"/></clipPath><clipPath id="d35a16bdf3"><path d="M 1296.402344 0 L 1440 0 L 1440 124.5625 L 1296.402344 124.5625 Z M 1296.402344 0 " clip-rule="nonzero"/></clipPath><clipPath id="96b09bab8a"><path d="M 1377.753906 -38.136719 C 1332.824219 -38.136719 1296.402344 -1.714844 1296.402344 43.214844 C 1296.402344 88.140625 1332.824219 124.5625 1377.753906 124.5625 C 1422.679688 124.5625 1459.101562 88.140625 1459.101562 43.214844 C 1459.101562 -1.714844 1422.679688 -38.136719 1377.753906 -38.136719 Z M 1377.753906 -38.136719 " clip-rule="nonzero"/></clipPath><clipPath id="0b2e52987c"><path d="M 0 0 L 256.5 0 L 256.5 259.148438 L 0 259.148438 Z M 0 0 " clip-rule="nonzero"/></clipPath><clipPath id="498ecc9215"><path d="M 40.5625 -172.722656 C -78.695312 -172.722656 -175.375 -76.046875 -175.375 43.214844 C -175.375 162.472656 -78.695312 259.148438 40.5625 259.148438 C 159.824219 259.148438 256.5 162.472656 256.5 43.214844 C 256.5 -76.046875 159.824219 -172.722656 40.5625 -172.722656 Z M 40.5625 -172.722656 " clip-rule="nonzero"/></clipPath><clipPath id="cd1f5f23fc"><path d="M 1075.21875 64.175781 L 1108.871094 64.175781 L 1108.871094 97.824219 L 1075.21875 97.824219 Z M 1075.21875 64.175781 " clip-rule="nonzero"/></clipPath><clipPath id="70ab92bd48"><path d="M 1092.046875 64.175781 C 1082.753906 64.175781 1075.21875 71.707031 1075.21875 81 C 1075.21875 90.292969 1082.753906 97.824219 1092.046875 97.824219 C 1101.339844 97.824219 1108.871094 90.292969 1108.871094 81 C 1108.871094 71.707031 1101.339844 64.175781 1092.046875 64.175781 Z M 1092.046875 64.175781 " clip-rule="nonzero"/></clipPath><clipPath id="4f5106ff91"><path d="M 846.457031 43.214844 L 905.039062 43.214844 L 905.039062 101.792969 L 846.457031 101.792969 Z M 846.457031 43.214844 " clip-rule="nonzero"/></clipPath><clipPath id="cfde510081"><path d="M 875.75 43.214844 C 859.570312 43.214844 846.457031 56.328125 846.457031 72.503906 C 846.457031 88.679688 859.570312 101.792969 875.75 101.792969 C 891.925781 101.792969 905.039062 88.679688 905.039062 72.503906 C 905.039062 56.328125 891.925781 43.214844 875.75 43.214844 Z M 875.75 43.214844 " clip-rule="nonzero"/></clipPath><clipPath id="11679436e0"><path d="M 1011.191406 228.992188 L 1032.433594 228.992188 L 1032.433594 250.230469 L 1011.191406 250.230469 Z M 1011.191406 228.992188 " clip-rule="nonzero"/></clipPath><clipPath id="041f277761"><path d="M 1021.8125 228.992188 C 1015.945312 228.992188 1011.191406 233.746094 1011.191406 239.609375 C 1011.191406 245.476562 1015.945312 250.230469 1021.8125 250.230469 C 1027.679688 250.230469 1032.433594 245.476562 1032.433594 239.609375 C 1032.433594 233.746094 1027.679688 228.992188 1021.8125 228.992188 Z M 1021.8125 228.992188 " clip-rule="nonzero"/></clipPath><clipPath id="a101c0e60c"><path d="M 166.601562 516.515625 L 224.269531 516.515625 L 224.269531 574.1875 L 166.601562 574.1875 Z M 166.601562 516.515625 " clip-rule="nonzero"/></clipPath><clipPath id="d74496874b"><path d="M 195.433594 516.515625 C 179.511719 516.515625 166.601562 529.425781 166.601562 545.351562 C 166.601562 561.277344 179.511719 574.1875 195.433594 574.1875 C 211.359375 574.1875 224.269531 561.277344 224.269531 545.351562 C 224.269531 529.425781 211.359375 516.515625 195.433594 516.515625 Z M 195.433594 516.515625 " clip-rule="nonzero"/></clipPath><clipPath id="50b1ec10ce"><path d="M 61.433594 706.996094 L 100.566406 706.996094 L 100.566406 746.128906 L 61.433594 746.128906 Z M 61.433594 706.996094 " clip-rule="nonzero"/></clipPath><clipPath id="342fc59a2a"><path d="M 81 706.996094 C 70.195312 706.996094 61.433594 715.753906 61.433594 726.5625 C 61.433594 737.367188 70.195312 746.128906 81 746.128906 C 91.804688 746.128906 100.566406 737.367188 100.566406 726.5625 C 100.566406 715.753906 91.804688 706.996094 81 706.996094 Z M 81 706.996094 " clip-rule="nonzero"/></clipPath><clipPath id="5224be04ee"><path d="M 501 69.792969 L 529.03125 69.792969 L 529.03125 97.824219 L 501 97.824219 Z M 501 69.792969 " clip-rule="nonzero"/></clipPath><clipPath id="2167bb5e39"><path d="M 515.015625 69.792969 C 507.277344 69.792969 501 76.070312 501 83.808594 C 501 91.550781 507.277344 97.824219 515.015625 97.824219 C 522.757812 97.824219 529.03125 91.550781 529.03125 83.808594 C 529.03125 76.070312 522.757812 69.792969 515.015625 69.792969 Z M 515.015625 69.792969 " clip-rule="nonzero"/></clipPath><clipPath id="0b95efda34"><path d="M 306.335938 746.128906 L 340.589844 746.128906 L 340.589844 780.386719 L 306.335938 780.386719 Z M 306.335938 746.128906 " clip-rule="nonzero"/></clipPath><clipPath id="71d5b49abd"><path d="M 323.464844 746.128906 C 314.003906 746.128906 306.335938 753.796875 306.335938 763.257812 C 306.335938 772.714844 314.003906 780.386719 323.464844 780.386719 C 332.921875 780.386719 340.589844 772.714844 340.589844 763.257812 C 340.589844 753.796875 332.921875 746.128906 323.464844 746.128906 Z M 323.464844 746.128906 " clip-rule="nonzero"/></clipPath></defs><rect x="-144" width="1728" fill="#ffffff" y="-80.999999" height="971.999992" fill-opacity="1"/><rect x="-144" width="1728" fill="#ffe565" y="-80.999999" height="971.999992" fill-opacity="1"/><g clip-path="url(#b30d55b4ef)"><g clip-path="url(#7b670cdba0)"><path fill="#ffffff" d="M 1048.078125 516.515625 L 1669.921875 516.515625 L 1669.921875 1138.355469 L 1048.078125 1138.355469 Z M 1048.078125 516.515625 " fill-opacity="1" fill-rule="nonzero"/></g></g><g clip-path="url(#d35a16bdf3)"><g clip-path="url(#96b09bab8a)"><path fill="#ffffff" d="M 1296.402344 -38.136719 L 1459.101562 -38.136719 L 1459.101562 124.5625 L 1296.402344 124.5625 Z M 1296.402344 -38.136719 " fill-opacity="1" fill-rule="nonzero"/></g></g><g clip-path="url(#0b2e52987c)"><g clip-path="url(#498ecc9215)"><path fill="#ffffff" d="M -175.375 -172.722656 L 256.5 -172.722656 L 256.5 259.148438 L -175.375 259.148438 Z M -175.375 -172.722656 " fill-opacity="1" fill-rule="nonzero"/></g></g><g clip-path="url(#cd1f5f23fc)"><g clip-path="url(#70ab92bd48)"><path fill="#ffffff" d="M 1075.21875 64.175781 L 1108.871094 64.175781 L 1108.871094 97.824219 L 1075.21875 97.824219 Z M 1075.21875 64.175781 " fill-opacity="1" fill-rule="nonzero"/></g></g><g clip-path="url(#4f5106ff91)"><g clip-path="url(#cfde510081)"><path fill="#b079ff" d="M 846.457031 43.214844 L 905.039062 43.214844 L 905.039062 101.792969 L 846.457031 101.792969 Z M 846.457031 43.214844 " fill-opacity="1" fill-rule="nonzero"/></g></g><g clip-path="url(#11679436e0)"><g clip-path="url(#041f277761)"><path fill="#000000" d="M 1011.191406 228.992188 L 1032.433594 228.992188 L 1032.433594 250.230469 L 1011.191406 250.230469 Z M 1011.191406 228.992188 " fill-opacity="1" fill-rule="nonzero"/></g></g><g clip-path="url(#a101c0e60c)"><g clip-path="url(#d74496874b)"><path fill="#000000" d="M 166.601562 516.515625 L 224.269531 516.515625 L 224.269531 574.183594 L 166.601562 574.183594 Z M 166.601562 516.515625 " fill-opacity="1" fill-rule="nonzero"/></g></g><g clip-path="url(#50b1ec10ce)"><g clip-path="url(#342fc59a2a)"><path fill="#b079ff" d="M 61.433594 706.996094 L 100.566406 706.996094 L 100.566406 746.128906 L 61.433594 746.128906 Z M 61.433594 706.996094 " fill-opacity="1" fill-rule="nonzero"/></g></g><g clip-path="url(#5224be04ee)"><g clip-path="url(#2167bb5e39)"><path fill="#b079ff" d="M 501 69.792969 L 529.03125 69.792969 L 529.03125 97.824219 L 501 97.824219 Z M 501 69.792969 " fill-opacity="1" fill-rule="nonzero"/></g></g><g clip-path="url(#0b95efda34)"><g clip-path="url(#71d5b49abd)"><path fill="#ffffff" d="M 306.335938 746.128906 L 340.589844 746.128906 L 340.589844 780.386719 L 306.335938 780.386719 Z M 306.335938 746.128906 " fill-opacity="1" fill-rule="nonzero"/></g></g></svg>